<?xml version="1.0" standalone="no"?>
<!DOCTYPE svg PUBLIC "-//W3C//DTD SVG 20010904//EN"
 "http://www.w3.org/TR/2001/REC-SVG-20010904/DTD/svg10.dtd">
<svg version="1.0" xmlns="http://www.w3.org/2000/svg"
 width="700.000000pt" height="700.000000pt" viewBox="0 0 700.000000 700.000000"
 preserveAspectRatio="xMidYMid meet">
<metadata>
Created by potrace 1.11, written by Peter Selinger 2001-2013
</metadata>
<g transform="translate(0.000000,700.000000) scale(0.100000,-0.100000)"
fill="#000000" stroke="none">
<path d="M3289 6866 c-2 -3 -38 -7 -79 -10 -399 -27 -907 -174 -1272 -369
-323 -173 -557 -346 -813 -602 -342 -342 -543 -642 -750 -1120 -70 -162 -166
-499 -190 -665 -4 -24 -8 -47 -10 -51 -2 -3 -7 -34 -11 -70 -3 -35 -8 -66 -9
-69 -10 -18 -20 -227 -20 -420 0 -201 3 -256 21 -405 26 -222 91 -497 172
-727 56 -157 187 -437 258 -550 13 -21 24 -40 24 -43 0 -2 37 -60 82 -127 203
-304 470 -588 777 -828 46 -35 290 -200 296 -200 2 0 30 -15 62 -34 270 -157
685 -318 933 -362 14 -3 41 -9 60 -14 37 -10 64 -14 145 -26 28 -3 58 -8 68
-10 16 -3 17 20 17 364 0 389 -3 421 -50 517 -48 99 -157 187 -290 234 -42 16
-50 19 -170 71 -336 146 -647 386 -891 690 -140 174 -286 436 -365 655 -37
103 -90 299 -104 385 -7 41 -14 83 -16 92 -18 101 -25 446 -11 568 16 141 29
221 47 290 5 19 12 50 15 69 3 19 11 43 17 55 6 11 11 22 10 24 -15 20 128
359 218 517 129 226 346 476 576 661 200 161 505 324 735 392 144 43 220 61
319 77 19 3 42 8 50 10 93 26 547 27 701 2 150 -25 147 -24 255 -53 165 -42
265 -80 439 -165 128 -62 189 -97 295 -169 447 -307 784 -770 933 -1286 20
-66 40 -147 46 -180 6 -32 14 -72 17 -89 20 -103 28 -217 28 -390 0 -205 -6
-278 -39 -445 -3 -14 -8 -41 -11 -60 -33 -202 -196 -615 -319 -810 -14 -22
-25 -42 -25 -44 0 -15 -212 -316 -282 -401 -184 -222 -403 -443 -614 -620 -32
-27 -61 -52 -64 -55 -3 -3 -54 -44 -115 -92 -352 -274 -745 -523 -1134 -719
l-194 -97 44 -6 c24 -3 69 -8 99 -12 122 -15 680 -7 710 11 3 1 32 6 65 10 49
5 205 34 275 50 8 2 36 8 61 14 80 18 276 80 382 120 315 120 624 294 877 494
398 315 717 703 938 1143 22 43 41 84 42 89 0 6 7 19 14 30 58 90 212 566 240
740 3 17 12 71 20 120 31 192 40 308 40 535 0 323 -31 574 -108 863 -155 583
-447 1090 -870 1512 -286 284 -547 474 -891 645 -335 166 -749 290 -1090 325
-33 4 -71 9 -85 11 -32 7 -525 15 -531 10z"/>
</g>
</svg>
