<svg id="Layer_1" data-name="Layer 1" xmlns="http://www.w3.org/2000/svg" viewBox="0 0 512 512"><title>512-export</title><path d="M446.92,437.57c-4.35-10.71-15-22.18-26.33-35.24l-286-367.14C113,10.42,77.57,5.66,55.81,24.6s-21.9,54.71-.33,79.48L379.84,437.82c10.86,12.47,20.37,24.09,29.92,30.15-7.58,11.15-10,21.77-5.16,27.33,7.21,8.27,27.71,2.21,45.79-13.53s26.9-35.22,19.7-43.49C465.87,433.43,457.09,433.53,446.92,437.57ZM343.22,328.88a4.39,4.39,0,1,1-6.62,5.77L94,56.13a4.39,4.39,0,0,1,6.62-5.77Z"/><path d="M41.91,438.27c-7.21,8.27,1.61,27.75,19.7,43.49s38.58,21.81,45.79,13.53c4.84-5.56,2.42-16.18-5.16-27.33,9.55-6.06,19.06-17.68,29.92-30.15L456.52,104.08c21.57-24.77,21.42-60.53-.33-79.48S399,10.42,377.42,35.19l-286,367.14c-11.37,13.06-22,24.53-26.33,35.24C54.91,433.53,46.13,433.43,41.91,438.27ZM411.33,50.36A4.39,4.39,0,0,1,418,56.13L175.41,334.65a4.39,4.39,0,1,1-6.62-5.77Z"/><rect x="241.97" y="218.75" width="23.89" height="34.68" rx="2.19" ry="2.19"/></svg>