<svg id="Layer_1" data-name="Layer 1" xmlns="http://www.w3.org/2000/svg" viewBox="0 0 512 512"><title>512-export</title><ellipse cx="256" cy="227.07" rx="71.12" ry="66.04"/><rect x="212.87" y="303.22" width="86.26" height="30.17" rx="2.77" ry="2.77"/><polygon points="299.13 504 212.87 504 222.53 343.49 289.47 343.49 299.13 504"/><path d="M279.17,95.85H233a8.5,8.5,0,0,0-8.47,8.47v46.16c0,4.66-1.76,7.17,2.9,7.17,0,0,17.12-6,28.65-6s28.07,5.2,28.07,5.2c4.66,0,3.48-1.71,3.48-6.37V104.32A8.5,8.5,0,0,0,279.17,95.85Z"/><rect x="251.53" y="8" width="8.94" height="78.44"/></svg>