<svg id="Layer_1" data-name="Layer 1" xmlns="http://www.w3.org/2000/svg" viewBox="0 0 512 512"><title>512-export</title><path d="M322.33,308l74-13.88s0,58.7-23.14,85.14c-25.91,22.93-86.07,25-86.07,21.29V342.55s21.29,6.12,29.61-5.91S322.33,308,322.33,308Z"/><path d="M389.08,189.42c-12-15.73-45.35-75-68.48-99S197.66,53.45,111.44,95c-49.59,23.91-87.49,85.68-91.62,135.12-5.34,63.93,29.05,133.68,64.93,175C107.61,431.45,156,444,169.9,444c47.35,0,106.2-40,101.8-94.4-2.9-35.95-18.66-35.25-11.26-47.28s55.68,3.7,137-18.51c35.54-9.71,95.32-24.69,95.32-47.2S401.11,205.15,389.08,189.42ZM182.82,371.73c-5.94,10.3-21,12.76-33.52,5.5s-17.94-21.49-12-31.78,21-12.76,33.52-5.5S188.76,361.44,182.82,371.73Z"/></svg>