<svg id="Layer_1" data-name="Layer 1" xmlns="http://www.w3.org/2000/svg" viewBox="0 0 512 512"><title>512-export</title><path d="M318.76,279.92l-57,57c-.42,0-.82-.13-1.24-.13l-.21,0L228.6,299.78,215.47,311l30.74,36a15.2,15.2,0,1,0,28.81.93L330.88,292Z"/><polygon points="355.14 148.51 156.25 148.51 110.66 188.11 400.73 188.11 355.14 148.51"/><rect x="159.1" y="119.67" width="193.76" height="18.81"/><polygon points="339.77 108.97 342.33 106.34 256.93 19 171.52 106.34 174.09 108.97 339.77 108.97"/><path d="M429.16,198H71.42V493H440.58V198ZM256.93,456.37a108.2,108.2,0,1,1,108.2-108.2A108.2,108.2,0,0,1,256.93,456.37ZM94.25,229.9h14.88V461.08H94.25ZM404.72,461.08V229.9h13V461.08Z"/></svg>