<svg id="Layer_1" data-name="Layer 1" xmlns="http://www.w3.org/2000/svg" viewBox="0 0 512 512"><title>512-export</title><path d="M240.3,238c-56.84,21-104,64.69-104,127.65a130.3,130.3,0,1,0,244.5-62.8l98.63-89.22-42-73.84Z"/><path d="M437.52,140,327.18,76.33,128.94,174.64C64.85,204.4,26.22,263,33.48,330.75c6.16,57.43,94.71,127.13,154.42,127.13C144,437.22,73.49,400.48,57.75,339.79c-13.19-50.85,31.37-126.34,95.46-156.1L328.85,99l99.26,57.31Z"/><polygon points="268.01 195.53 225.54 172.37 253.05 156.54 303.72 179.68 268.01 195.53"/><path d="M162.17,133.57h0c-4.27,3.42-10.26,4.1-13.33,1.52L95.1,89.85C92,87.27,93,82.37,97.29,79h0c4.27-3.42,10.26-4.1,13.33-1.52l53.74,45.24C167.42,125.25,166.44,130.16,162.17,133.57Z"/><path d="M216.66,100.53h0c-5.23,1.61-9.88-.31-10.33-4.27l-7.86-69.54c-.45-4,3.47-8.53,8.7-10.14h0c5.23-1.61,9.88.31,10.33,4.27l7.86,69.54C225.81,94.35,221.89,98.91,216.66,100.53Z"/><rect x="157.5" y="31.1" width="20.27" height="81.56" rx="1.75" ry="1.75" transform="translate(-14.22 85.88) rotate(-27.61)"/></svg>