<svg id="Layer_1" data-name="Layer 1" xmlns="http://www.w3.org/2000/svg" viewBox="0 0 512 512"><title>512-export</title><path d="M385.87,417.44c-22.83,10.59-42.69,14-46.19,7.3s10-20.56,31.06-33.13A220.44,220.44,0,0,1,355.08,350c-26.52,3.07-48-.29-49.15-8s17.81-16.83,43.4-21.61a223.94,223.94,0,0,1-1.75-27.54c0-3,.09-6,.21-8.94-24.91-1.27-43.82-7.48-43.82-15,0-7.8,20.58-14.22,47.08-15.1a220.32,220.32,0,0,1,11.13-40.24c-26-13-44-29.45-40.32-36.92S349.13,173.43,375,186a222.31,222.31,0,0,1,21.33-31.87c-18.65-19.66-29.05-39.26-23.45-44.86s24.59,4.48,43.93,22.58c4.63-4.39,9.46-8.57,14.45-12.56a221.94,221.94,0,0,0-330.32-22A191,191,0,0,1,132.47,133C152,124,169,121.07,172,126.78s-8.6,17.59-26.58,28.35a188.63,188.63,0,0,1,13.41,35.63c22.69-2.62,41.08.25,42.06,6.89s-15.24,14.4-37.14,18.49a191.62,191.62,0,0,1,1.5,23.56c0,2.56-.08,5.11-.18,7.65,21.31,1.09,37.5,6.4,37.5,12.8,0,6.68-17.61,12.17-40.28,12.92a188.54,188.54,0,0,1-9.52,34.43c22.25,11.12,37.67,25.2,34.51,31.59s-23.34,2.73-45.44-8a190.24,190.24,0,0,1-18.25,27.27c16,16.82,24.86,33.59,20.07,38.39s-21-3.84-37.59-19.32a191.33,191.33,0,0,1-22.36,18.21,221.94,221.94,0,0,0,311.06,33.8C391.66,425.55,388.68,421.56,385.87,417.44Z"/><path d="M116.13,141.8a172.71,172.71,0,0,0-27.85-31.09,221.94,221.94,0,0,0-15.6,270.21,172.59,172.59,0,0,0,20.67-16.79C81.18,349.7,75,336.48,79.16,332.31s16.84,1.77,30.93,13.44a171.78,171.78,0,0,0,15.67-23.62c-14.12-9.14-22.63-18.57-20.21-23.46s14.73-3.89,30.26,1.59a170.18,170.18,0,0,0,7.85-27.66C125,271,111.39,266,111.39,260.15c0-6.17,15.06-11.33,35.26-12.67.12-2.58.18-5.17.18-7.78a173,173,0,0,0-1.35-21.24c-19.23,1.28-33.93-1.63-34.8-7.54s11.79-12.65,29.95-17a170.33,170.33,0,0,0-11.54-30.3c-18.82,8.45-34.93,11-37.84,5.47S99.14,152.29,116.13,141.8Z"/><path d="M448.16,184.55c-4.77,4.77-19.68-2.07-36.14-15.71a200.71,200.71,0,0,0-18.31,27.61c16.51,10.68,26.45,21.7,23.62,27.42S400.12,228.42,382,222a198.9,198.9,0,0,0-9.18,32.32c21.83,1.9,37.71,7.69,37.71,14.55,0,7.21-17.61,13.24-41.2,14.81-.13,3-.21,6-.21,9.09a202.23,202.23,0,0,0,1.57,24.82c22.48-1.5,39.65,1.91,40.67,8.81s-13.78,14.78-35,19.84a199.07,199.07,0,0,0,13.49,35.41c22-9.88,40.82-12.86,44.22-6.39s-9.22,19.66-29.07,31.91q2.86,4.1,5.92,8.05a221.88,221.88,0,0,0,32.75-278.42q-6.23,5-12.05,10.55C445.8,164.23,453,179.68,448.16,184.55Z"/></svg>