<svg id="Layer_1" data-name="Layer 1" xmlns="http://www.w3.org/2000/svg" viewBox="0 0 512 512"><title>512-export</title><path d="M176.11,370,153,371.87c2.35-11.8,4.25-24.12,5.76-35.88l14.47-1.17-1.65-20.44-10.45.85c2.37-23.54,3.13-41.12,3.13-41.12l-21.77-16.16A585.36,585.36,0,0,1,141,316.86L40,325H22.43l.14,1.41-4.82.39,1.65,20.44,5.23-.42L28.2,382l-5.94.48,1.65,20.44,6.35-.51,6.57,64.83h1.29v2.25s24.41,3.45,39,0c36.11-8.55,56-35.55,65.44-59.38a169.73,169.73,0,0,0,5.62-17.25l29.62-2.4Zm-71.2,56.79c-11.09,15.53-32.74,19.76-48.4,20.67l-3.41-46.93L123,394.88C119,405.32,114,414.07,104.91,426.79Zm30.91-76.57c-2.45,9.3-4.41,16.92-6.21,23.54l-78,6.31-2.56-35.2,89.37-7.23C137.7,342.12,136.83,346.37,135.82,350.22Z"/><path d="M322.67,41.79c-209.49-14.89-241,186-241,186l47.62.34c25.47,4.69,53.29,21.24,52,49.59,0,28.67-3.91,63.78,14.7,103.33,15.28,21.06,38.09,40.75,87.7,43.41s89-47.74,109.85-53.15,69.1,4.43,69.1,4.43L489.22,296C508.39,238.52,476.81,52.74,322.67,41.79ZM243,398.09a9.84,9.84,0,1,1,9.84-9.83A9.84,9.84,0,0,1,243,398.09Zm64-50.7a23,23,0,1,1,23-23A23,23,0,0,1,307,347.39Zm142.35-38.6-18.71-7.43c20.55-87,3.46-172.07-80.38-201.95-76.13-27.13-152.63,11.35-196.54,92.06l-17.45-6.93S195.55,60,317.7,71.54C402.86,79.6,494.24,163.2,449.31,308.79Z"/></svg>