<svg id="Layer_1" data-name="Layer 1" xmlns="http://www.w3.org/2000/svg" viewBox="0 0 512 512"><title>512-export</title><path d="M446,33c-12.84-15.18-86.29-20.33-138-15L480.19,163.95C480.8,108.58,462.67,52.36,446,33Z"/><path d="M68,479.29c13.27,8.3,78.86,25.9,139.38,10.78L31.8,341.35C35.83,403,51.33,468.84,68,479.29Z"/><path d="M273.07,27.66c-55.93,18.63-114.21,53.55-159.5,107-44.1,52.07-68.33,113.74-77.74,171l205.52,174c54-19.49,110-54.2,154.14-106.27,44.77-52.86,70.08-116.14,80.27-174.13Zm34.56,159.49L284,210.82l-23.44-23.44c-6.94,5.77-14.17,12.22-21.54,19.34l25.18,22.41-22.25,25-25.73-22.9c-6.72,7.82-13.84,16.42-20.79,25l28.07,22.52-20.94,26.1-27.92-22.4c-13,16.66-22.4,29.18-22.4,29.18-7.72,7-28.62-18.4-32-15.36,1.43-1.29,13.17-16.27,28-35l-28-22.49,20.94-26.1,28,22.48c7.52-9.28,15-18.41,21.83-26.4L163.09,184l22.25-25,28.31,25.2c7.74-7.59,15.49-14.49,23-20.69L209.35,136.2,233,112.53l30.5,30.5A315.39,315.39,0,0,1,294.11,124l25.6,22.28c-1.26,1.38-14,7.91-32.32,20.66Z"/></svg>