<svg id="Layer_1" data-name="Layer 1" xmlns="http://www.w3.org/2000/svg" viewBox="0 0 512 512"><title>512-export</title><path d="M188.39,152.31H325a8.3,8.3,0,0,0,0-16.6H311.76l-7-7.43H272.45c0-3-3.9-5.67-9.48-6.81a2.33,2.33,0,0,0,1.18-1.71L260.66,66c0-2-1.67-53-3.71-53s-3.71,51-3.71,53l-3.49,53.73a2.24,2.24,0,0,0,1.08,1.63c-5.8,1.1-9.89,3.77-9.89,6.89H209.12l-7,7.43H188.39a8.3,8.3,0,0,0,0,16.6Z"/><path d="M438.87,222.64,327.49,189l-.44-7,4.64-12.67H345.4a4.37,4.37,0,0,0,0-8.74H167.62a4.37,4.37,0,0,0,0,8.74h13.72l2,7L185.09,189,73.71,222.64Z"/><path d="M475,231.23H37a11.94,11.94,0,0,0,0,23.88H475a11.94,11.94,0,0,0,0-23.88Z"/><polygon points="438.87 262.68 73.71 262.68 94.39 293.55 419.36 293.55 438.87 262.68"/><path d="M448.86,302.86H62.64a7.28,7.28,0,0,0,0,14.56H448.86a7.28,7.28,0,0,0,0-14.56Z"/><polygon points="157.87 335.48 357.05 335.48 374.81 317.71 140.39 317.71 157.87 335.48"/><path d="M242,499V338.33a10.59,10.59,0,0,1,10.56-10.56c5.81,0,5.08,4.75,5.08,10.56V499h33.63V331.12a21,21,0,0,0-21-21H245.93a21,21,0,0,0-21,21V499Z"/></svg>