<svg id="Layer_1" data-name="Layer 1" xmlns="http://www.w3.org/2000/svg" viewBox="0 0 512 512"><title>512-export</title><path d="M-36,538,264.36,77a202.64,202.64,0,0,0-6.69-51.7c-1.31,0-2.6-.1-3.92-.1-127.59,0-231,103.44-231,231,0,6.57.34,13.06.88,19.49A203.3,203.3,0,0,0,62,279.43C173.74,279.43,264.36,188.81,264.36,77ZM478.84,308.24C378.3,311.15,296.2,387.32,284,485.25,380,472.69,457.45,401.2,478.84,308.24Zm-223.92,179C266.53,371,364.4,280.09,483.62,279.49q1.14-11.46,1.16-23.23c0-116.07-85.61-212.12-197.12-228.53A231.73,231.73,0,0,1,293,77c0,127.59-103.44,231-231,231A232.8,232.8,0,0,1,28,305.56c22.59,103.9,115,181.73,225.7,181.73Z"/></svg>