<?xml version="1.0" encoding="utf-8"?>
<!-- Generator: Adobe Illustrator 20.1.0, SVG Export Plug-In . SVG Version: 6.00 Build 0)  -->
<svg version="1.1" id="Layer_1" xmlns="http://www.w3.org/2000/svg" xmlns:xlink="http://www.w3.org/1999/xlink" x="0px" y="0px"
	 viewBox="0 0 270 270" style="enable-background:new 0 0 270 270;" xml:space="preserve">
<style type="text/css">
	.st0{fill:#31C4F3;}
</style>
<path id="XMLID_455_" class="st0" d="M135,5C63.2,5,5,63.2,5,135c0,65.9,49.1,120.4,112.7,128.8v-26.2c0-7.4-4.7-14-11.7-16.4
	c-36.7-12.3-62.9-47.4-62-88.5c1.2-50,41.9-89.3,91.9-88.8c49.8,0.5,90.1,41.1,90.1,91c0,1.1,0,2.3-0.1,3.4c0,0.3,0,0.5,0,0.8
	c0,1-0.1,2.1-0.2,3.1c0,0.3-0.1,0.7-0.1,1c-0.1,0.7-0.1,1.4-0.2,2.2c-0.1,0.8-0.2,1.6-0.3,2.4c-0.1,0.4-0.1,0.7-0.2,1.1
	c-11.1,73.4-106.7,114.6-107.3,114.9c5.7,0.8,11.4,1.2,17.3,1.2c71.8,0,130-58.2,130-130C265,63.2,206.8,5,135,5z"/>
</svg>
